G04 Layer_Color=8421504*
%FSLAX25Y25*%
%MOIN*%
G70*
G01*
G75*
%ADD10R,0.05400X0.02400*%
%ADD11R,0.02362X0.01968*%
%ADD12R,0.01575X0.01575*%
%ADD13R,0.03937X0.01968*%
%ADD14O,0.01378X0.02362*%
%ADD15O,0.02362X0.01378*%
%ADD16R,0.10236X0.10236*%
%ADD17O,0.00984X0.03347*%
%ADD18O,0.03347X0.00984*%
%ADD19R,0.02165X0.02165*%
%ADD20R,0.02165X0.02165*%
%ADD21R,0.02362X0.04331*%
%ADD22R,0.03150X0.03543*%
%ADD23R,0.02362X0.02953*%
%ADD24R,0.00787X0.03543*%
%ADD25R,0.03543X0.00787*%
%ADD27R,0.20000X0.40000*%
%ADD28R,0.05905X0.02756*%
%ADD29R,0.03150X0.03937*%
%ADD30P,0.03062X4X180.0*%
%ADD32R,0.05787X0.04685*%
%ADD33R,0.01968X0.02559*%
%ADD34R,0.01968X0.02362*%
%ADD35R,0.02559X0.01968*%
G04:AMPARAMS|DCode=36|XSize=19.68mil|YSize=23.62mil|CornerRadius=0mil|HoleSize=0mil|Usage=FLASHONLY|Rotation=135.000|XOffset=0mil|YOffset=0mil|HoleType=Round|Shape=Rectangle|*
%AMROTATEDRECTD36*
4,1,4,0.01531,0.00139,-0.00139,-0.01531,-0.01531,-0.00139,0.00139,0.01531,0.01531,0.00139,0.0*
%
%ADD36ROTATEDRECTD36*%

%ADD37R,0.03937X0.01378*%
%ADD38R,0.03937X0.03937*%
%ADD39R,0.04134X0.08661*%
%ADD75R,0.05118X0.05118*%
D10*
X278402Y-50685D02*
D03*
X291000D02*
D03*
X278402Y-46748D02*
D03*
X291000D02*
D03*
X278402Y-42811D02*
D03*
X291000D02*
D03*
X278402Y-38874D02*
D03*
X291000D02*
D03*
X278402Y-34937D02*
D03*
X291000D02*
D03*
X278402Y-31000D02*
D03*
X291000D02*
D03*
X278402Y-27063D02*
D03*
X291000D02*
D03*
X278402Y-23126D02*
D03*
X291000D02*
D03*
X278402Y-19189D02*
D03*
X291000D02*
D03*
X278402Y-15252D02*
D03*
X291000D02*
D03*
X278402Y-11315D02*
D03*
X291000D02*
D03*
X278402Y-7378D02*
D03*
X291000D02*
D03*
D11*
X156468Y-5000D02*
D03*
X152532D02*
D03*
X247532Y-69500D02*
D03*
X251468Y-69500D02*
D03*
X247532Y-90500D02*
D03*
X251468D02*
D03*
X59531Y-25000D02*
D03*
X63468D02*
D03*
X74532Y-28000D02*
D03*
X78469D02*
D03*
X61532Y-44500D02*
D03*
X65469D02*
D03*
X78531Y-84000D02*
D03*
X82468D02*
D03*
X78531Y-72000D02*
D03*
X82468D02*
D03*
X78531Y-60000D02*
D03*
X82468D02*
D03*
X101969Y-56500D02*
D03*
X98032D02*
D03*
X101969Y-48500D02*
D03*
X98032D02*
D03*
X128969Y11000D02*
D03*
X125031D02*
D03*
X128969Y6500D02*
D03*
X125031D02*
D03*
X121968Y15000D02*
D03*
X118032D02*
D03*
X107468Y22000D02*
D03*
X103532D02*
D03*
X88937Y8000D02*
D03*
X85000D02*
D03*
X219969Y-67500D02*
D03*
X216032D02*
D03*
X219969Y-63500D02*
D03*
X216032D02*
D03*
X219969Y-55500D02*
D03*
X216032D02*
D03*
X219969Y-51500D02*
D03*
X216032D02*
D03*
X161031Y-55000D02*
D03*
X164969D02*
D03*
X161031Y-47000D02*
D03*
X164969D02*
D03*
X219969Y-43500D02*
D03*
X216032D02*
D03*
X219969Y-39500D02*
D03*
X216032D02*
D03*
X219969Y-31500D02*
D03*
X216032D02*
D03*
X219969Y-27500D02*
D03*
X216032D02*
D03*
X161031Y-51000D02*
D03*
X164969D02*
D03*
X161031Y-31000D02*
D03*
X164969D02*
D03*
X161031Y-27000D02*
D03*
X164969D02*
D03*
D12*
X153224Y23224D02*
D03*
Y20075D02*
D03*
Y16925D02*
D03*
Y13776D02*
D03*
X143776D02*
D03*
Y16925D02*
D03*
Y20075D02*
D03*
Y23224D02*
D03*
D13*
X119000Y6669D02*
D03*
X119000Y11000D02*
D03*
D14*
X105453Y14252D02*
D03*
X103484D02*
D03*
X101516D02*
D03*
X99547D02*
D03*
Y-4252D02*
D03*
X101516Y-4252D02*
D03*
X103484D02*
D03*
X105453D02*
D03*
D15*
X96004Y13858D02*
D03*
X96004Y11890D02*
D03*
X96004Y9921D02*
D03*
Y7953D02*
D03*
Y5984D02*
D03*
Y4016D02*
D03*
Y2047D02*
D03*
Y79D02*
D03*
Y-1890D02*
D03*
X96004Y-3858D02*
D03*
X108996Y-3858D02*
D03*
Y-1890D02*
D03*
Y79D02*
D03*
X108996Y2047D02*
D03*
Y4016D02*
D03*
Y5984D02*
D03*
X108996Y7953D02*
D03*
Y9921D02*
D03*
X108996Y11890D02*
D03*
Y13858D02*
D03*
D16*
X81453Y-45421D02*
D03*
D17*
X86374Y-53000D02*
D03*
X84405D02*
D03*
X82437D02*
D03*
X80468D02*
D03*
X78500D02*
D03*
X76531D02*
D03*
Y-37843D02*
D03*
X78500D02*
D03*
X80468D02*
D03*
X82437D02*
D03*
X84405D02*
D03*
X86374D02*
D03*
D18*
X73874Y-50343D02*
D03*
Y-48374D02*
D03*
Y-46406D02*
D03*
Y-44437D02*
D03*
Y-42469D02*
D03*
Y-40500D02*
D03*
X89031D02*
D03*
Y-42469D02*
D03*
Y-44437D02*
D03*
Y-46406D02*
D03*
Y-48374D02*
D03*
Y-50343D02*
D03*
D19*
X10000Y-26000D02*
D03*
Y-22457D02*
D03*
X78500Y-20728D02*
D03*
Y-24272D02*
D03*
X189000Y-12772D02*
D03*
Y-9228D02*
D03*
D20*
X65728Y-2500D02*
D03*
X69272D02*
D03*
X65728Y-10500D02*
D03*
X69272D02*
D03*
X65728Y-6500D02*
D03*
X69272D02*
D03*
X161228Y-67000D02*
D03*
X164772D02*
D03*
X161228Y-35000D02*
D03*
X164772D02*
D03*
X161228Y-23000D02*
D03*
X164772D02*
D03*
D21*
X251500Y-84697D02*
D03*
X244020Y-84697D02*
D03*
Y-75248D02*
D03*
X247760D02*
D03*
X251500D02*
D03*
D22*
X150465Y-9646D02*
D03*
X158535D02*
D03*
Y-15354D02*
D03*
X150465D02*
D03*
D23*
X102075Y-37433D02*
D03*
Y-41567D02*
D03*
X98925Y-37433D02*
D03*
Y-41567D02*
D03*
D24*
X198161Y-32386D02*
D03*
X195012D02*
D03*
X191862D02*
D03*
X188713D02*
D03*
X185563D02*
D03*
X182413D02*
D03*
X180839D02*
D03*
X183988D02*
D03*
X187138D02*
D03*
X190287D02*
D03*
X193437D02*
D03*
X196587D02*
D03*
X180839Y-55614D02*
D03*
X183988D02*
D03*
X187138D02*
D03*
X190287D02*
D03*
X193437D02*
D03*
X196587D02*
D03*
X198161D02*
D03*
X195012D02*
D03*
X191862D02*
D03*
X188713D02*
D03*
X185563D02*
D03*
X182413D02*
D03*
D25*
X201114Y-52661D02*
D03*
Y-49512D02*
D03*
Y-46362D02*
D03*
Y-43213D02*
D03*
Y-40063D02*
D03*
Y-36913D02*
D03*
Y-35339D02*
D03*
Y-38488D02*
D03*
Y-41638D02*
D03*
Y-44787D02*
D03*
Y-47937D02*
D03*
Y-51087D02*
D03*
X177886Y-36913D02*
D03*
Y-40063D02*
D03*
Y-43213D02*
D03*
Y-46362D02*
D03*
Y-49512D02*
D03*
Y-52661D02*
D03*
Y-51087D02*
D03*
Y-47937D02*
D03*
Y-44787D02*
D03*
Y-41638D02*
D03*
Y-38488D02*
D03*
Y-35339D02*
D03*
D27*
X10500Y-97000D02*
D03*
D28*
X13390Y17453D02*
D03*
Y5642D02*
D03*
Y-264D02*
D03*
D29*
X2169Y22768D02*
D03*
X10831D02*
D03*
X2169Y-5579D02*
D03*
X10831D02*
D03*
D30*
X217639Y-11361D02*
D03*
X220145Y-8855D02*
D03*
X212139Y-5861D02*
D03*
X214645Y-3355D02*
D03*
D32*
X63500Y-30634D02*
D03*
Y-37366D02*
D03*
D33*
X82500Y-76130D02*
D03*
Y-79870D02*
D03*
Y-64130D02*
D03*
Y-67870D02*
D03*
X256000Y-26870D02*
D03*
Y-23130D02*
D03*
X135000Y19630D02*
D03*
Y23370D02*
D03*
X202000Y-74870D02*
D03*
Y-71130D02*
D03*
X171000Y-74870D02*
D03*
Y-71130D02*
D03*
X185000Y-9130D02*
D03*
Y-12870D02*
D03*
X173000Y-9130D02*
D03*
Y-12870D02*
D03*
D34*
X82500Y-88032D02*
D03*
Y-91969D02*
D03*
X86000Y-76032D02*
D03*
Y-79969D02*
D03*
X190000Y-74968D02*
D03*
Y-71031D02*
D03*
X206000Y-71031D02*
D03*
Y-74968D02*
D03*
X198000Y-74968D02*
D03*
Y-71031D02*
D03*
X194000Y-74968D02*
D03*
Y-71031D02*
D03*
X175000Y-74968D02*
D03*
Y-71031D02*
D03*
X179000Y-74968D02*
D03*
Y-71031D02*
D03*
X183000Y-74968D02*
D03*
Y-71031D02*
D03*
X165000Y-62968D02*
D03*
Y-59031D02*
D03*
X161000Y-62968D02*
D03*
Y-59031D02*
D03*
Y-39031D02*
D03*
Y-42968D02*
D03*
X165000Y-42968D02*
D03*
Y-39031D02*
D03*
X181000Y-9031D02*
D03*
Y-12968D02*
D03*
X177000Y-9031D02*
D03*
Y-12968D02*
D03*
X169000Y-9031D02*
D03*
Y-12968D02*
D03*
X165000Y-9031D02*
D03*
Y-12968D02*
D03*
X197000Y-9031D02*
D03*
Y-12968D02*
D03*
X193000Y-9031D02*
D03*
Y-12968D02*
D03*
D35*
X219870Y-71500D02*
D03*
X216130D02*
D03*
X219870Y-59500D02*
D03*
X216130D02*
D03*
X219870Y-47500D02*
D03*
X216130D02*
D03*
X219870Y-35500D02*
D03*
X216130D02*
D03*
D36*
X217500Y-6000D02*
D03*
X220284Y-3216D02*
D03*
D37*
X182957Y-88059D02*
D03*
Y-85500D02*
D03*
Y-82941D02*
D03*
X190043D02*
D03*
Y-85500D02*
D03*
Y-88059D02*
D03*
D38*
X82500Y-97594D02*
D03*
X190000D02*
D03*
D39*
X88307Y-103500D02*
D03*
X76693D02*
D03*
X195807D02*
D03*
X184193D02*
D03*
D75*
X189500Y-49709D02*
D03*
Y-38291D02*
D03*
X183791Y-44000D02*
D03*
X195209D02*
D03*
Y-38291D02*
D03*
X195209Y-49709D02*
D03*
X183791Y-49709D02*
D03*
Y-38291D02*
D03*
X189500Y-44000D02*
D03*
M02*
