G04 Layer_Color=8388736*
%FSLAX25Y25*%
%MOIN*%
G70*
G01*
G75*
%ADD76R,0.06000X0.03000*%
%ADD77R,0.02962X0.02568*%
%ADD78R,0.02175X0.02175*%
%ADD79R,0.04537X0.02568*%
%ADD80O,0.01978X0.02962*%
%ADD81O,0.02962X0.01978*%
%ADD82R,0.10836X0.10836*%
%ADD83O,0.01584X0.03947*%
%ADD84O,0.03947X0.01584*%
%ADD85R,0.02765X0.02765*%
%ADD86R,0.02765X0.02765*%
%ADD87R,0.02962X0.04931*%
%ADD88R,0.03750X0.04143*%
%ADD89R,0.02962X0.03553*%
%ADD90R,0.01181X0.03937*%
%ADD91R,0.03937X0.01181*%
%ADD92R,0.17716X0.17716*%
%ADD93R,0.20600X0.40600*%
%ADD94R,0.06506X0.03356*%
%ADD95R,0.03750X0.04537*%
%ADD96P,0.03911X4X180.0*%
G04:AMPARAMS|DCode=97|XSize=37mil|YSize=37mil|CornerRadius=18.5mil|HoleSize=0mil|Usage=FLASHONLY|Rotation=90.000|XOffset=0mil|YOffset=0mil|HoleType=Round|Shape=RoundedRectangle|*
%AMROUNDEDRECTD97*
21,1,0.03700,0.00000,0,0,90.0*
21,1,0.00000,0.03700,0,0,90.0*
1,1,0.03700,0.00000,0.00000*
1,1,0.03700,0.00000,0.00000*
1,1,0.03700,0.00000,0.00000*
1,1,0.03700,0.00000,0.00000*
%
%ADD97ROUNDEDRECTD97*%
%ADD98R,0.06387X0.05285*%
%ADD99R,0.02568X0.03159*%
%ADD100R,0.02568X0.02962*%
%ADD101R,0.03159X0.02568*%
G04:AMPARAMS|DCode=102|XSize=25.68mil|YSize=29.62mil|CornerRadius=0mil|HoleSize=0mil|Usage=FLASHONLY|Rotation=135.000|XOffset=0mil|YOffset=0mil|HoleType=Round|Shape=Rectangle|*
%AMROTATEDRECTD102*
4,1,4,0.01955,0.00139,-0.00139,-0.01955,-0.01955,-0.00139,0.00139,0.01955,0.01955,0.00139,0.0*
%
%ADD102ROTATEDRECTD102*%

%ADD103R,0.04537X0.01978*%
%ADD104R,0.04537X0.04537*%
%ADD105R,0.04734X0.09261*%
%ADD106C,0.26575*%
%ADD107R,0.06506X0.06506*%
%ADD108C,0.06506*%
%ADD109C,0.10400*%
%ADD110C,0.02800*%
%ADD111C,0.04143*%
%ADD112C,0.09950*%
%ADD113C,0.04500*%
%ADD114C,0.01772*%
D76*
X278402Y-50685D02*
D03*
X291000D02*
D03*
X278402Y-46748D02*
D03*
X291000D02*
D03*
X278402Y-42811D02*
D03*
X291000D02*
D03*
X278402Y-38874D02*
D03*
X291000D02*
D03*
X278402Y-34937D02*
D03*
X291000D02*
D03*
X278402Y-31000D02*
D03*
X291000D02*
D03*
X278402Y-27063D02*
D03*
X291000D02*
D03*
X278402Y-23126D02*
D03*
X291000D02*
D03*
X278402Y-19189D02*
D03*
X291000D02*
D03*
X278402Y-15252D02*
D03*
X291000D02*
D03*
X278402Y-11315D02*
D03*
X291000D02*
D03*
X278402Y-7378D02*
D03*
X291000D02*
D03*
D77*
X156468Y-5000D02*
D03*
X152532D02*
D03*
X247532Y-69500D02*
D03*
X251468Y-69500D02*
D03*
X247532Y-90500D02*
D03*
X251468D02*
D03*
X59531Y-25000D02*
D03*
X63468D02*
D03*
X74532Y-28000D02*
D03*
X78469D02*
D03*
X61532Y-44500D02*
D03*
X65469D02*
D03*
X78531Y-84000D02*
D03*
X82468D02*
D03*
X78531Y-72000D02*
D03*
X82468D02*
D03*
X78531Y-60000D02*
D03*
X82468D02*
D03*
X101969Y-56500D02*
D03*
X98032D02*
D03*
X101969Y-48500D02*
D03*
X98032D02*
D03*
X128969Y11000D02*
D03*
X125031D02*
D03*
X128969Y6500D02*
D03*
X125031D02*
D03*
X121968Y15000D02*
D03*
X118032D02*
D03*
X107468Y22000D02*
D03*
X103532D02*
D03*
X88937Y8000D02*
D03*
X85000D02*
D03*
X219969Y-67500D02*
D03*
X216032D02*
D03*
X219969Y-63500D02*
D03*
X216032D02*
D03*
X219969Y-55500D02*
D03*
X216032D02*
D03*
X219969Y-51500D02*
D03*
X216032D02*
D03*
X161031Y-55000D02*
D03*
X164969D02*
D03*
X161031Y-47000D02*
D03*
X164969D02*
D03*
X219969Y-43500D02*
D03*
X216032D02*
D03*
X219969Y-39500D02*
D03*
X216032D02*
D03*
X219969Y-31500D02*
D03*
X216032D02*
D03*
X219969Y-27500D02*
D03*
X216032D02*
D03*
X161031Y-51000D02*
D03*
X164969D02*
D03*
X161031Y-31000D02*
D03*
X164969D02*
D03*
X161031Y-27000D02*
D03*
X164969D02*
D03*
D78*
X153224Y23224D02*
D03*
Y20075D02*
D03*
Y16925D02*
D03*
Y13776D02*
D03*
X143776D02*
D03*
Y16925D02*
D03*
Y20075D02*
D03*
Y23224D02*
D03*
D79*
X119000Y6669D02*
D03*
X119000Y11000D02*
D03*
D80*
X105453Y14252D02*
D03*
X103484D02*
D03*
X101516D02*
D03*
X99547D02*
D03*
Y-4252D02*
D03*
X101516Y-4252D02*
D03*
X103484D02*
D03*
X105453D02*
D03*
D81*
X96004Y13858D02*
D03*
X96004Y11890D02*
D03*
X96004Y9921D02*
D03*
Y7953D02*
D03*
Y5984D02*
D03*
Y4016D02*
D03*
Y2047D02*
D03*
Y79D02*
D03*
Y-1890D02*
D03*
X96004Y-3858D02*
D03*
X108996Y-3858D02*
D03*
Y-1890D02*
D03*
Y79D02*
D03*
X108996Y2047D02*
D03*
Y4016D02*
D03*
Y5984D02*
D03*
X108996Y7953D02*
D03*
Y9921D02*
D03*
X108996Y11890D02*
D03*
Y13858D02*
D03*
D82*
X81453Y-45421D02*
D03*
D83*
X86374Y-53000D02*
D03*
X84405D02*
D03*
X82437D02*
D03*
X80468D02*
D03*
X78500D02*
D03*
X76531D02*
D03*
Y-37843D02*
D03*
X78500D02*
D03*
X80468D02*
D03*
X82437D02*
D03*
X84405D02*
D03*
X86374D02*
D03*
D84*
X73874Y-50343D02*
D03*
Y-48374D02*
D03*
Y-46406D02*
D03*
Y-44437D02*
D03*
Y-42469D02*
D03*
Y-40500D02*
D03*
X89031D02*
D03*
Y-42469D02*
D03*
Y-44437D02*
D03*
Y-46406D02*
D03*
Y-48374D02*
D03*
Y-50343D02*
D03*
D85*
X10000Y-26000D02*
D03*
Y-22457D02*
D03*
X78500Y-20728D02*
D03*
Y-24272D02*
D03*
X189000Y-12772D02*
D03*
Y-9228D02*
D03*
D86*
X65728Y-2500D02*
D03*
X69272D02*
D03*
X65728Y-10500D02*
D03*
X69272D02*
D03*
X65728Y-6500D02*
D03*
X69272D02*
D03*
X161228Y-67000D02*
D03*
X164772D02*
D03*
X161228Y-35000D02*
D03*
X164772D02*
D03*
X161228Y-23000D02*
D03*
X164772D02*
D03*
D87*
X251500Y-84697D02*
D03*
X244020Y-84697D02*
D03*
Y-75248D02*
D03*
X247760D02*
D03*
X251500D02*
D03*
D88*
X150465Y-9646D02*
D03*
X158535D02*
D03*
Y-15354D02*
D03*
X150465D02*
D03*
D89*
X102075Y-37433D02*
D03*
Y-41567D02*
D03*
X98925Y-37433D02*
D03*
Y-41567D02*
D03*
D90*
X198161Y-32386D02*
D03*
X195012D02*
D03*
X191862D02*
D03*
X188713D02*
D03*
X185563D02*
D03*
X182413D02*
D03*
X180839D02*
D03*
X183988D02*
D03*
X187138D02*
D03*
X190287D02*
D03*
X193437D02*
D03*
X196587D02*
D03*
X180839Y-55614D02*
D03*
X183988D02*
D03*
X187138D02*
D03*
X190287D02*
D03*
X193437D02*
D03*
X196587D02*
D03*
X198161D02*
D03*
X195012D02*
D03*
X191862D02*
D03*
X188713D02*
D03*
X185563D02*
D03*
X182413D02*
D03*
D91*
X201114Y-52661D02*
D03*
Y-49512D02*
D03*
Y-46362D02*
D03*
Y-43213D02*
D03*
Y-40063D02*
D03*
Y-36913D02*
D03*
Y-35339D02*
D03*
Y-38488D02*
D03*
Y-41638D02*
D03*
Y-44787D02*
D03*
Y-47937D02*
D03*
Y-51087D02*
D03*
X177886Y-36913D02*
D03*
Y-40063D02*
D03*
Y-43213D02*
D03*
Y-46362D02*
D03*
Y-49512D02*
D03*
Y-52661D02*
D03*
Y-51087D02*
D03*
Y-47937D02*
D03*
Y-44787D02*
D03*
Y-41638D02*
D03*
Y-38488D02*
D03*
Y-35339D02*
D03*
D92*
X189500Y-44000D02*
D03*
D93*
X10500Y-97000D02*
D03*
D94*
X13390Y17453D02*
D03*
Y5642D02*
D03*
Y-264D02*
D03*
D95*
X2169Y22768D02*
D03*
X10831D02*
D03*
X2169Y-5579D02*
D03*
X10831D02*
D03*
D96*
X217639Y-11361D02*
D03*
X220145Y-8855D02*
D03*
X212139Y-5861D02*
D03*
X214645Y-3355D02*
D03*
D97*
X137000Y-90000D02*
D03*
X132000D02*
D03*
X137000Y-95000D02*
D03*
X132000D02*
D03*
X137000Y-100000D02*
D03*
X132000D02*
D03*
D98*
X63500Y-30634D02*
D03*
Y-37366D02*
D03*
D99*
X82500Y-76130D02*
D03*
Y-79870D02*
D03*
Y-64130D02*
D03*
Y-67870D02*
D03*
X256000Y-26870D02*
D03*
Y-23130D02*
D03*
X135000Y19630D02*
D03*
Y23370D02*
D03*
X202000Y-74870D02*
D03*
Y-71130D02*
D03*
X171000Y-74870D02*
D03*
Y-71130D02*
D03*
X185000Y-9130D02*
D03*
Y-12870D02*
D03*
X173000Y-9130D02*
D03*
Y-12870D02*
D03*
D100*
X82500Y-88032D02*
D03*
Y-91969D02*
D03*
X86000Y-76032D02*
D03*
Y-79969D02*
D03*
X190000Y-74968D02*
D03*
Y-71031D02*
D03*
X206000Y-71031D02*
D03*
Y-74968D02*
D03*
X198000Y-74968D02*
D03*
Y-71031D02*
D03*
X194000Y-74968D02*
D03*
Y-71031D02*
D03*
X175000Y-74968D02*
D03*
Y-71031D02*
D03*
X179000Y-74968D02*
D03*
Y-71031D02*
D03*
X183000Y-74968D02*
D03*
Y-71031D02*
D03*
X165000Y-62968D02*
D03*
Y-59031D02*
D03*
X161000Y-62968D02*
D03*
Y-59031D02*
D03*
Y-39031D02*
D03*
Y-42968D02*
D03*
X165000Y-42968D02*
D03*
Y-39031D02*
D03*
X181000Y-9031D02*
D03*
Y-12968D02*
D03*
X177000Y-9031D02*
D03*
Y-12968D02*
D03*
X169000Y-9031D02*
D03*
Y-12968D02*
D03*
X165000Y-9031D02*
D03*
Y-12968D02*
D03*
X197000Y-9031D02*
D03*
Y-12968D02*
D03*
X193000Y-9031D02*
D03*
Y-12968D02*
D03*
D101*
X219870Y-71500D02*
D03*
X216130D02*
D03*
X219870Y-59500D02*
D03*
X216130D02*
D03*
X219870Y-47500D02*
D03*
X216130D02*
D03*
X219870Y-35500D02*
D03*
X216130D02*
D03*
D102*
X217500Y-6000D02*
D03*
X220284Y-3216D02*
D03*
D103*
X182957Y-88059D02*
D03*
Y-85500D02*
D03*
Y-82941D02*
D03*
X190043D02*
D03*
Y-85500D02*
D03*
Y-88059D02*
D03*
D104*
X82500Y-97594D02*
D03*
X190000D02*
D03*
D105*
X88307Y-103500D02*
D03*
X76693D02*
D03*
X195807D02*
D03*
X184193D02*
D03*
D106*
X244346Y44000D02*
D03*
Y-46551D02*
D03*
X16000Y44000D02*
D03*
Y-46551D02*
D03*
D107*
X35173Y39000D02*
D03*
D108*
X45173D02*
D03*
X55173D02*
D03*
X65173D02*
D03*
X75173D02*
D03*
X85173D02*
D03*
X95173D02*
D03*
X105173D02*
D03*
X115173D02*
D03*
X125173D02*
D03*
X135173D02*
D03*
X145173D02*
D03*
X155173D02*
D03*
X165173D02*
D03*
X175173D02*
D03*
X185173D02*
D03*
X195173D02*
D03*
X205173D02*
D03*
X215173D02*
D03*
X225173D02*
D03*
X35173Y49000D02*
D03*
X45173D02*
D03*
X55173D02*
D03*
X65173D02*
D03*
X75173D02*
D03*
X85173D02*
D03*
X95173D02*
D03*
X105173D02*
D03*
X115173D02*
D03*
X125173D02*
D03*
X135173D02*
D03*
X145173D02*
D03*
X155173D02*
D03*
X165173D02*
D03*
X175173D02*
D03*
X185173D02*
D03*
X195173D02*
D03*
X205173D02*
D03*
X215173D02*
D03*
X225173D02*
D03*
D109*
X445953Y48921D02*
D03*
Y-106984D02*
D03*
X278236Y48921D02*
D03*
Y-106984D02*
D03*
D110*
X282733Y-50685D02*
D03*
X286669D02*
D03*
X282733Y-46748D02*
D03*
X286669D02*
D03*
X282733Y-42811D02*
D03*
X286669D02*
D03*
X282733Y-38874D02*
D03*
X286669D02*
D03*
X282733Y-34937D02*
D03*
X286669D02*
D03*
X282733Y-31000D02*
D03*
X286669D02*
D03*
X282733Y-27063D02*
D03*
X286669D02*
D03*
X282733Y-23126D02*
D03*
X286669D02*
D03*
X282733Y-19189D02*
D03*
X286669D02*
D03*
X282733Y-15252D02*
D03*
X286669D02*
D03*
X282733Y-11315D02*
D03*
X286669D02*
D03*
X282733Y-7378D02*
D03*
X286669D02*
D03*
X79287Y-43256D02*
D03*
X83618D02*
D03*
X79287Y-47587D02*
D03*
X83618D02*
D03*
D111*
X6500Y14500D02*
D03*
Y2689D02*
D03*
D112*
X144500Y-92500D02*
D03*
X124500D02*
D03*
X144500Y-105000D02*
D03*
X124500D02*
D03*
D113*
X138500Y-85000D02*
D03*
X130500D02*
D03*
X134500Y-105000D02*
D03*
D114*
X194421Y-44000D02*
D03*
X194028Y-48724D02*
D03*
Y-39276D02*
D03*
X189303D02*
D03*
Y-44000D02*
D03*
X184579D02*
D03*
Y-48724D02*
D03*
X189303D02*
D03*
X184579Y-39276D02*
D03*
M02*
