M48
;Layer_Color=9474304
;FILE_FORMAT=2:5
INCH,LZ
;TYPE=PLATED
T1F00S00C0.00800
T2F00S00C0.01181
T3F00S00C0.02200
T4F00S00C0.03543
T5F00S00C0.04016
T6F00S00C0.09800
;TYPE=NON_PLATED
T7F00S00C0.03543
T8F00S00C0.03900
T9F00S00C0.09350
T10F00S00C0.10827
%
T01
X006Y-01075
X0065
X007
X00675Y-01025
X00625
X00575
X006Y-00975
X0065
X007
X00725Y-00925
X00675
X00625
X00575
X006Y-00875
X0065
X007
X00675Y-00825
X00625
X00575
X006Y-00775
X0065
X007
X0075
Y-0072
X00675Y-00725
X00625
X00575
X006Y-00675
X0065
X007
X00675Y-00625
X00625
X00575
X0058Y-00445
X00575Y-0035
X00655Y-0048
X0079287Y-0047587
Y-0043256
X0083618
Y-0047587
X009Y-00575
X00925Y-00625
X00975
X01025
X0105Y-00675
X01
X0095
X009
X00925Y-00725
X00975
X01025
X0105Y-00775
X01
X0095
X00975Y-00825
X01025
X0105Y-00875
X01
X0095
X00975Y-00925
X01025
X0105Y-00975
X01
X0095
X00975Y-01025
X01025
X0105Y-01075
X01
X0095
X0083691Y-0103698
X0088206Y-0093936
X0087489Y-0089798
X00925Y-00925
Y-00825
X0075Y-0084
X0078325Y-0088211
X007738Y-0092304
X0076396Y-0096387
X0075Y-006
X00875Y-00625
X0098031Y-0051969
X01045Y-0051031
X01055Y-00565
X0106Y-00375
X0094933Y-0041567
X001Y-003
X01075Y-0044
X0115Y-0040713
X01075Y-00625
Y-00725
Y-00825
Y-00925
Y-01025
X01425Y-008
X0155Y-007
X0165Y-00775
X01675Y-00825
X01725
X0175Y-00875
X017
X0165
X01675Y-00925
X01725
X01775
X0175Y-00975
X017
X0165
X01675Y-01025
X01725
X01775
X0175Y-01075
X017
X0165
X0189463Y-0103698
X02025Y-01025
X02075
X02125
X0215Y-00975
X021
X0205
X02075Y-00925
X02125
X0215Y-00875
X021
X0205
X02075Y-00825
X02125
X02025
X0194176Y-0083863
X0196147Y-0087572
X0195015Y-0091616
X0196104Y-0095673
X02025Y-00925
X0205Y-01075
X021
X0215
X021Y-0071
X0212Y-00635
X021Y-00575
X0205Y-0055
X0208Y-0047
X02115Y-00475
X0224
Y-00435
Y-00395
Y-00355
Y-00315
Y-00515
Y-00555
Y-0059
Y-00635
Y-00675
Y-00715
X02475Y-0065
X0251469Y-0065031
X02515Y-0095
X02435Y-00905
X0184035Y-0094574
X0171Y-0066
X0175Y-00575
X01575Y-0055
Y-0051
Y-0047
Y-0031
X01405Y-0055
X01305
X0198Y-0066
X0256Y-0031
X02725
X02965
Y-0035
X0296315Y-0050685
X02965Y-0027
X02725
X0256Y-0019
X0245Y-0011
X0255Y00075
Y00125
Y00225
Y00275
X023Y002
X0225Y0015
X02225Y00225
X021Y002
X02235Y0
X0235Y001
X0224Y-00275
X0216031Y-0023531
X0190069Y-0023931
X0181Y-0017
X0169
Y-0005
X0173
X0177
X0181
X0185
X0189
X0193
X0197
X01875Y0005
X01825Y00025
X01775Y0
X01725Y00025
X01675Y0005
X0165Y-0005
X016
X01575Y-0023
Y-0027
X0143Y-0025
X0133
X0128
X014Y-00025
X01425Y00025
X0145Y00075
X01325Y00065
Y0011
X0135Y0015
X0140075Y0016925
Y0020075
X0135Y00275
X01251Y00296
X012Y00225
X0118Y00185
X01115Y0022
X01255Y0015
X0113642Y-0003858
X01575Y0023
X01675Y00275
X01Y0022
X0099547Y0009953
X01Y0005
X0105484Y0006
X0105453Y0009953
X01055Y-001
X01015Y-0015
X00785Y-0017
X0075Y-00105
Y-00065
Y-00025
X00775Y00125
X00845Y00115
X0085Y0025
X008Y00225
X0075Y002
X007Y00175
X0065Y0015
X005Y00175
Y00225
X002Y0017453
X0019642Y0005642
X002Y-00025
Y-00075
Y-00125
Y-00175
Y-00225
X001Y-00185
X00355Y-00225
X0056Y-0025
X0071Y-0028
X009Y00025
X009Y00275
T02
X0184579Y-0048724
Y-0044
X0189303
Y-0039276
X0194028
X0194421Y-0044
X0194028Y-0048724
X0189303
X0184579Y-0039276
T03
X0282733Y-0050685
X0286669
Y-0046748
X0282733
Y-0042811
X0286669
Y-0038874
X0282733
Y-0034937
X0286669
Y-0031
X0282733
Y-0027063
X0286669
Y-0023126
X0282733
Y-0019189
X0286669
Y-0015252
X0282733
Y-0011315
X0286669
Y-0007378
X0282733
T04
X0115173Y0039
X0125173
X0135173
X0145173
X0155173
X0165173
X0175173
X0185173
X0195173
X0205173
X0215173
X0225173
Y0049
X0215173
X0205173
X0195173
X0185173
X0175173
X0165173
X0155173
X0145173
X0135173
X0125173
X0115173
X0105173
Y0039
X0095173
X0085173
X0075173
X0065173
X0055173
X0045173
X0035173
Y0049
X0045173
X0055173
X0065173
X0075173
X0085173
X0095173
T05
X00105Y-0097
T06
X0278236Y-0106984
X0445953
Y0048921
X0278236
T07
X00065Y0002689
Y00145
T08
X01345Y-0105
X01385Y-0085
X01305
T09
X01245Y-0105
Y-00925
X01445
Y-0105
T10
X0016Y-0046551
X0244346
Y0044
X0016
M30
