G04 Layer_Physical_Order=3*
G04 Layer_Color=128*
%FSLAX25Y25*%
%MOIN*%
G70*
G01*
G75*
%ADD53C,0.04000*%
%ADD54C,0.13227*%
%ADD55C,0.05943*%
%ADD57C,0.12200*%
%ADD58C,0.04600*%
%ADD59C,0.11750*%
%ADD60C,0.06300*%
G04:AMPARAMS|DCode=61|XSize=48mil|YSize=48mil|CornerRadius=0mil|HoleSize=0mil|Usage=FLASHONLY|Rotation=0.000|XOffset=0mil|YOffset=0mil|HoleType=Round|Shape=Relief|Width=8mil|Gap=10mil|Entries=4|*
%AMTHD61*
7,0,0,0.04800,0.02800,0.00800,45*
%
%ADD61THD61*%
%ADD62C,0.03200*%
%ADD65C,0.03581*%
%ADD66C,0.06416*%
G36*
X288224Y-51870D02*
X281138D01*
Y-5906D01*
X288224D01*
Y-51870D01*
D02*
G37*
D53*
X0Y-117500D02*
Y59500D01*
X456500D01*
Y-117500D02*
Y59500D01*
X0Y-117500D02*
X456500D01*
D54*
X244346Y44000D02*
D03*
Y-46551D02*
D03*
X16000Y44000D02*
D03*
Y-46551D02*
D03*
D55*
X35173Y39000D02*
D03*
X45173D02*
D03*
X55173D02*
D03*
X65173D02*
D03*
X75173D02*
D03*
X85173D02*
D03*
X95173D02*
D03*
X105173D02*
D03*
X115173D02*
D03*
X125173D02*
D03*
X135173D02*
D03*
X145173D02*
D03*
X155173D02*
D03*
X165173D02*
D03*
X175173D02*
D03*
X185173D02*
D03*
X195173D02*
D03*
X205173D02*
D03*
X215173D02*
D03*
X225173D02*
D03*
X35173Y49000D02*
D03*
X45173D02*
D03*
X55173D02*
D03*
X65173D02*
D03*
X75173D02*
D03*
X85173D02*
D03*
X95173D02*
D03*
X105173D02*
D03*
X115173D02*
D03*
X125173D02*
D03*
X135173D02*
D03*
X145173D02*
D03*
X155173D02*
D03*
X165173D02*
D03*
X175173D02*
D03*
X185173D02*
D03*
X195173D02*
D03*
X205173D02*
D03*
X215173D02*
D03*
X225173D02*
D03*
X6500Y14500D02*
D03*
Y2689D02*
D03*
D57*
X445953Y48921D02*
D03*
Y-106984D02*
D03*
X278236Y48921D02*
D03*
Y-106984D02*
D03*
D58*
X282733Y-50685D02*
D03*
X286669D02*
D03*
X282733Y-46748D02*
D03*
X286669D02*
D03*
X282733Y-42811D02*
D03*
X286669D02*
D03*
X282733Y-38874D02*
D03*
X286669D02*
D03*
X282733Y-34937D02*
D03*
X286669D02*
D03*
X282733Y-31000D02*
D03*
X286669D02*
D03*
X282733Y-27063D02*
D03*
X286669D02*
D03*
X282733Y-23126D02*
D03*
X286669D02*
D03*
X282733Y-19189D02*
D03*
X286669D02*
D03*
X282733Y-15252D02*
D03*
X286669D02*
D03*
X282733Y-11315D02*
D03*
X286669D02*
D03*
X282733Y-7378D02*
D03*
X286669D02*
D03*
D59*
X144500Y-92500D02*
D03*
X124500D02*
D03*
X144500Y-105000D02*
D03*
X124500D02*
D03*
D60*
X138500Y-85000D02*
D03*
X130500D02*
D03*
X134500Y-105000D02*
D03*
D61*
X10000Y-30000D02*
D03*
X99547Y9953D02*
D03*
X65500Y-48000D02*
D03*
X171000Y-66000D02*
D03*
X140075Y16925D02*
D03*
X135000Y27500D02*
D03*
X296315Y-50685D02*
D03*
X296500Y-27000D02*
D03*
X272500D02*
D03*
X256000Y-19000D02*
D03*
X181000Y-17000D02*
D03*
X216031Y-23531D02*
D03*
X212000Y-63500D02*
D03*
X198000Y-66000D02*
D03*
X19642Y5642D02*
D03*
X78500Y-17000D02*
D03*
X100000Y22000D02*
D03*
X118000Y18500D02*
D03*
X251469Y-65031D02*
D03*
D62*
X79287Y-43256D02*
D03*
X83618D02*
D03*
X79287Y-47587D02*
D03*
X83618D02*
D03*
X215000Y-87500D02*
D03*
Y-97500D02*
D03*
Y-107500D02*
D03*
X210000Y-57500D02*
D03*
X212500Y-82500D02*
D03*
X210000Y-87500D02*
D03*
X212500Y-92500D02*
D03*
X210000Y-97500D02*
D03*
X212500Y-102500D02*
D03*
X210000Y-107500D02*
D03*
X207500Y-82500D02*
D03*
X205000Y-87500D02*
D03*
X207500Y-92500D02*
D03*
X205000Y-97500D02*
D03*
X207500Y-102500D02*
D03*
X205000Y-107500D02*
D03*
X202500Y-82500D02*
D03*
Y-92500D02*
D03*
Y-102500D02*
D03*
X175000Y-57500D02*
D03*
Y-87500D02*
D03*
X177500Y-92500D02*
D03*
X175000Y-97500D02*
D03*
X177500Y-102500D02*
D03*
X175000Y-107500D02*
D03*
X172500Y-82500D02*
D03*
X170000Y-87500D02*
D03*
X172500Y-92500D02*
D03*
X170000Y-97500D02*
D03*
X172500Y-102500D02*
D03*
X170000Y-107500D02*
D03*
X165000Y-77500D02*
D03*
X167500Y-82500D02*
D03*
X165000Y-87500D02*
D03*
X167500Y-92500D02*
D03*
X165000Y-97500D02*
D03*
X167500Y-102500D02*
D03*
X165000Y-107500D02*
D03*
X107500Y-62500D02*
D03*
X105000Y-67500D02*
D03*
X107500Y-72500D02*
D03*
X105000Y-77500D02*
D03*
X107500Y-82500D02*
D03*
X105000Y-87500D02*
D03*
X107500Y-92500D02*
D03*
X105000Y-97500D02*
D03*
X107500Y-102500D02*
D03*
X105000Y-107500D02*
D03*
X102500Y-62500D02*
D03*
X100000Y-67500D02*
D03*
X102500Y-72500D02*
D03*
X100000Y-77500D02*
D03*
X102500Y-82500D02*
D03*
X100000Y-87500D02*
D03*
X102500Y-92500D02*
D03*
X100000Y-97500D02*
D03*
X102500Y-102500D02*
D03*
X100000Y-107500D02*
D03*
X97500Y-62500D02*
D03*
X95000Y-67500D02*
D03*
X97500Y-72500D02*
D03*
X95000Y-77500D02*
D03*
X97500Y-82500D02*
D03*
X95000Y-87500D02*
D03*
X97500Y-92500D02*
D03*
X95000Y-97500D02*
D03*
X97500Y-102500D02*
D03*
X95000Y-107500D02*
D03*
X90000Y-57500D02*
D03*
X92500Y-62500D02*
D03*
X90000Y-67500D02*
D03*
X92500Y-72500D02*
D03*
Y-82500D02*
D03*
Y-92500D02*
D03*
X87500Y-62500D02*
D03*
X75000Y-77500D02*
D03*
X70000Y-67500D02*
D03*
Y-77500D02*
D03*
Y-87500D02*
D03*
X72500Y-92500D02*
D03*
X70000Y-97500D02*
D03*
Y-107500D02*
D03*
X67500Y-62500D02*
D03*
X65000Y-67500D02*
D03*
X67500Y-72500D02*
D03*
X65000Y-77500D02*
D03*
X67500Y-82500D02*
D03*
X65000Y-87500D02*
D03*
X67500Y-92500D02*
D03*
X65000Y-97500D02*
D03*
X67500Y-102500D02*
D03*
X65000Y-107500D02*
D03*
X62500Y-62500D02*
D03*
X60000Y-67500D02*
D03*
X62500Y-72500D02*
D03*
X60000Y-77500D02*
D03*
X62500Y-82500D02*
D03*
X60000Y-87500D02*
D03*
X62500Y-92500D02*
D03*
X60000Y-97500D02*
D03*
X62500Y-102500D02*
D03*
X60000Y-107500D02*
D03*
X57500Y-62500D02*
D03*
Y-72500D02*
D03*
Y-82500D02*
D03*
Y-92500D02*
D03*
Y-102500D02*
D03*
X78325Y-88211D02*
D03*
X77380Y-92304D02*
D03*
X76396Y-96387D02*
D03*
X83691Y-103698D02*
D03*
X88206Y-93936D02*
D03*
X87489Y-89798D02*
D03*
X184035Y-94574D02*
D03*
X189463Y-103698D02*
D03*
X196104Y-95673D02*
D03*
X195015Y-91616D02*
D03*
X196147Y-87572D02*
D03*
X194176Y-83863D02*
D03*
X10000Y-18500D02*
D03*
X120000Y22500D02*
D03*
X167500Y27500D02*
D03*
X125100Y29600D02*
D03*
X210000Y20000D02*
D03*
X140000Y-2500D02*
D03*
X142500Y2500D02*
D03*
X145000Y7500D02*
D03*
X100000Y5000D02*
D03*
X77500Y12500D02*
D03*
X90000Y2500D02*
D03*
X85000Y25000D02*
D03*
X80000Y22500D02*
D03*
X75000Y20000D02*
D03*
X65000Y15000D02*
D03*
X90000Y27500D02*
D03*
X70000Y17500D02*
D03*
X20000Y-2500D02*
D03*
X35500Y-22500D02*
D03*
X75000Y-2500D02*
D03*
Y-10500D02*
D03*
Y-6500D02*
D03*
X223500Y0D02*
D03*
X255000Y7500D02*
D03*
Y27500D02*
D03*
Y22500D02*
D03*
Y12500D02*
D03*
X225000Y15000D02*
D03*
X172500Y2500D02*
D03*
X167500Y5000D02*
D03*
X230000Y20000D02*
D03*
X222500Y22500D02*
D03*
X187500Y5000D02*
D03*
X182500Y2500D02*
D03*
X177500Y0D02*
D03*
X235000Y10000D02*
D03*
X101500Y-15000D02*
D03*
X105500Y-10000D02*
D03*
X105484Y6000D02*
D03*
X105453Y9953D02*
D03*
X113642Y-3858D02*
D03*
X20000Y-17500D02*
D03*
Y-12500D02*
D03*
Y-22500D02*
D03*
X50000Y17500D02*
D03*
Y22500D02*
D03*
X245000Y-11000D02*
D03*
X105500Y-56500D02*
D03*
X104500Y-51031D02*
D03*
X125500Y15000D02*
D03*
X84500Y11500D02*
D03*
X140075Y20075D02*
D03*
X224000Y-71500D02*
D03*
X208000Y-47000D02*
D03*
X205000Y-55000D02*
D03*
X224000Y-59000D02*
D03*
Y-67500D02*
D03*
X211500Y-47500D02*
D03*
X157500Y-31000D02*
D03*
Y-27000D02*
D03*
X155000Y-70000D02*
D03*
X142500Y-80000D02*
D03*
X115000Y-40713D02*
D03*
X94933Y-41567D02*
D03*
X106000Y-37500D02*
D03*
X190069Y-23931D02*
D03*
X251500Y-95000D02*
D03*
X296500Y-35000D02*
D03*
Y-31000D02*
D03*
X272500D02*
D03*
X256000D02*
D03*
X169000Y-17000D02*
D03*
X224000Y-27500D02*
D03*
Y-31500D02*
D03*
Y-35500D02*
D03*
Y-39500D02*
D03*
Y-43500D02*
D03*
Y-47500D02*
D03*
Y-51500D02*
D03*
Y-55500D02*
D03*
Y-63500D02*
D03*
X210000Y-71000D02*
D03*
X157500Y-55000D02*
D03*
Y-51000D02*
D03*
Y-47000D02*
D03*
Y-23000D02*
D03*
X20000Y17453D02*
D03*
X140500Y-55000D02*
D03*
X130500D02*
D03*
X143000Y-25000D02*
D03*
X133000D02*
D03*
X128000D02*
D03*
X107500Y-44000D02*
D03*
X98031Y-51969D02*
D03*
X57500Y-35000D02*
D03*
X75000Y-84000D02*
D03*
Y-72000D02*
D03*
Y-60000D02*
D03*
X58000Y-44500D02*
D03*
X56000Y-25000D02*
D03*
X71000Y-28000D02*
D03*
X111500Y22000D02*
D03*
X132500Y11000D02*
D03*
Y6500D02*
D03*
X197000Y-5000D02*
D03*
X193000D02*
D03*
X189000D02*
D03*
X185000D02*
D03*
X181000D02*
D03*
X177000D02*
D03*
X173000D02*
D03*
X169000D02*
D03*
X165000D02*
D03*
X160000D02*
D03*
X243500Y-90500D02*
D03*
X247500Y-65000D02*
D03*
X135000Y15000D02*
D03*
X157500Y23000D02*
D03*
X20000Y-7500D02*
D03*
D65*
X194421Y-44000D02*
D03*
X194028Y-48724D02*
D03*
Y-39276D02*
D03*
X189303D02*
D03*
Y-44000D02*
D03*
X184579D02*
D03*
Y-48724D02*
D03*
X189303D02*
D03*
X184579Y-39276D02*
D03*
D66*
X10500Y-97000D02*
D03*
M02*
